<?xml version="1.0" encoding="UTF-8" standalone="no"?>
<!-- Created with Inkscape (http://www.inkscape.org/) -->

<svg
   xmlns:dc="http://purl.org/dc/elements/1.1/"
   xmlns:cc="http://creativecommons.org/ns#"
   xmlns:rdf="http://www.w3.org/1999/02/22-rdf-syntax-ns#"
   xmlns:svg="http://www.w3.org/2000/svg"
   xmlns="http://www.w3.org/2000/svg"
   xmlns:sodipodi="http://sodipodi.sourceforge.net/DTD/sodipodi-0.dtd"
   xmlns:inkscape="http://www.inkscape.org/namespaces/inkscape"
   id="svg3374"
   version="1.1"
   inkscape:version="0.91 r13725"
   xml:space="preserve"
   width="125.625"
   height="126.05"
   viewBox="0 0 125.625 126.05"
   sodipodi:docname="LAW13_Logo.svg"><metadata
     id="metadata3380"><rdf:RDF><cc:Work
         rdf:about=""><dc:format>image/svg+xml</dc:format><dc:type
           rdf:resource="http://purl.org/dc/dcmitype/StillImage" /><dc:title></dc:title></cc:Work></rdf:RDF></metadata><defs
     id="defs3378" /><sodipodi:namedview
     pagecolor="#ffffff"
     bordercolor="#666666"
     borderopacity="1"
     objecttolerance="10"
     gridtolerance="10"
     guidetolerance="10"
     inkscape:pageopacity="0"
     inkscape:pageshadow="2"
     inkscape:window-width="1588"
     inkscape:window-height="872"
     id="namedview3376"
     showgrid="false"
     inkscape:zoom="6.862356"
     inkscape:cx="62.8125"
     inkscape:cy="63.025002"
     inkscape:window-x="0"
     inkscape:window-y="4"
     inkscape:window-maximized="0"
     inkscape:current-layer="g3394" /><g
     id="g3382"
     inkscape:groupmode="layer"
     inkscape:label="ink_ext_XXXXXX"
     transform="matrix(1.25,0,0,-1.25,0,126.05)"><g
       id="g3384"
       transform="scale(0.1,0.1)"><path
         d="m 493.391,574.078 0,246.774 c 0,0 -9.868,187.528 148.027,187.528 l 315.894,0 0,-286.212 c 0,0 -19.746,-148.09 -148.042,-148.09 l -315.879,0"
         style="fill:#bf1d23;fill-opacity:1;fill-rule:nonzero;stroke:none"
         id="path3386"
         inkscape:connector-curvature="0" /><path
         d="m 0.121094,106.641 0,246.757 c 0,0 -9.804684,187.481 148.105906,187.481 l 315.8,0 0,-286.211 c 0,0 -19.726,-148.027 -148.027,-148.027 l -315.878906,0"
         style="fill:#f7960f;fill-opacity:1;fill-rule:nonzero;stroke:none"
         id="path3388"
         inkscape:connector-curvature="0" /><path
         d="m 465.23,573.277 -178.097,0 c 0,0 -135.321,-7.109 -135.321,106.832 l 0,227.969 206.543,0 c 0,0 106.875,-14.199 106.875,-106.871 l 0,-227.93"
         style="fill:#f15029;fill-opacity:1;fill-rule:nonzero;stroke:none"
         id="path3390"
         inkscape:connector-curvature="0" /><path
         d="M 1002.98,0 713.84,1.57812 c 0,0 -219.887,-10.32812 -218.891,174.74988 1.02,185.176 2.031,370.27 2.031,370.27 l 335.571,-1.821 c 0,0 173.279,-24.16 172.459,-174.523 C 1004.19,219.902 1002.98,0 1002.98,0"
         style="fill:#58aa3f;fill-opacity:1;fill-rule:nonzero;stroke:none"
         id="path3392"
         inkscape:connector-curvature="0" /><g
         id="g3394"
         transform="scale(10,10)"><text
           transform="matrix(1,0,0,-1,13.7645,21.1129)"
           style="font-variant:normal;font-weight:bold;font-size:36px;font-family:Arial;-inkscape-font-specification:Arial-BoldMT;writing-mode:lr-tb;fill:#ffffff;fill-opacity:1;fill-rule:nonzero;stroke:none"
           id="text3396"><tspan
             x="0"
             y="0"
             id="tspan3398">L</tspan></text>
<text
           transform="matrix(1,0,0,-1,21.5977,63.3902)"
           style="font-variant:normal;font-weight:bold;font-size:27px;font-family:Arial;-inkscape-font-specification:Arial-BoldMT;writing-mode:lr-tb;fill:#ffffff;fill-opacity:1;fill-rule:nonzero;stroke:none"
           id="text3400"><tspan
             x="0"
             y="0"
             id="tspan3402">A</tspan></text>
<text
           transform="matrix(1,0,0,-1,54.7645,64.5859)"
           style="font-variant:normal;font-weight:bold;font-size:36px;font-family:Arial;-inkscape-font-specification:Arial-BoldMT;writing-mode:lr-tb;fill:#ffffff;fill-opacity:1;fill-rule:nonzero;stroke:none"
           id="text3404"><tspan
             x="0"
             y="0"
             id="tspan3406">W</tspan><tspan
             x="-0.74179697 -0.74179697"
             y="49.217201"
             sodipodi:role="line"
             id="tspan3408">113</tspan></text>
</g></g></g></svg>